<svg width="153" height="63" viewBox="0 0 153 63" fill="none" xmlns="http://www.w3.org/2000/svg">
<rect x="25.2292" width="45" height="45" transform="rotate(34.1006 25.2292 0)" fill="#ECB301"/>
<path d="M21.928 23.2V40H16.264V33.808H11.032V40H5.368V23.2H11.032V29.152H16.264V23.2H21.928ZM38.9851 35.728V40H25.0171V23.2H38.6731V27.472H30.5851V29.44H37.6891V33.52H30.5851V35.728H38.9851ZM52.9735 37.072H46.5895L45.4615 40H39.7015L47.0455 23.2H52.6135L59.9575 40H54.1015L52.9735 37.072ZM51.4135 32.992L49.7815 28.768L48.1495 32.992H51.4135ZM61.2214 23.2H69.5014C71.3734 23.2 73.0214 23.544 74.4454 24.232C75.8854 24.904 76.9974 25.872 77.7814 27.136C78.5814 28.4 78.9814 29.888 78.9814 31.6C78.9814 33.312 78.5814 34.8 77.7814 36.064C76.9974 37.328 75.8854 38.304 74.4454 38.992C73.0214 39.664 71.3734 40 69.5014 40H61.2214V23.2ZM69.2614 35.584C70.4774 35.584 71.4454 35.24 72.1654 34.552C72.9014 33.848 73.2694 32.864 73.2694 31.6C73.2694 30.336 72.9014 29.36 72.1654 28.672C71.4454 27.968 70.4774 27.616 69.2614 27.616H66.8854V35.584H69.2614ZM87.6736 40.384C86.2816 40.384 84.9216 40.232 83.5936 39.928C82.2816 39.608 81.2016 39.184 80.3536 38.656L82.1776 34.528C82.9776 34.992 83.8736 35.368 84.8656 35.656C85.8576 35.928 86.8096 36.064 87.7216 36.064C88.5056 36.064 89.0656 35.992 89.4016 35.848C89.7376 35.688 89.9056 35.456 89.9056 35.152C89.9056 34.8 89.6816 34.536 89.2336 34.36C88.8016 34.184 88.0816 33.992 87.0736 33.784C85.7776 33.512 84.6976 33.224 83.8336 32.92C82.9696 32.6 82.2176 32.088 81.5776 31.384C80.9376 30.664 80.6176 29.696 80.6176 28.48C80.6176 27.424 80.9136 26.464 81.5056 25.6C82.0976 24.736 82.9776 24.056 84.1456 23.56C85.3296 23.064 86.7616 22.816 88.4416 22.816C89.5936 22.816 90.7216 22.944 91.8256 23.2C92.9456 23.44 93.9296 23.8 94.7776 24.28L93.0736 28.384C91.4256 27.552 89.8656 27.136 88.3936 27.136C86.9376 27.136 86.2096 27.488 86.2096 28.192C86.2096 28.528 86.4256 28.784 86.8576 28.96C87.2896 29.12 88.0016 29.296 88.9936 29.488C90.2736 29.728 91.3536 30.008 92.2336 30.328C93.1136 30.632 93.8736 31.136 94.5136 31.84C95.1696 32.544 95.4976 33.504 95.4976 34.72C95.4976 35.776 95.2016 36.736 94.6096 37.6C94.0176 38.448 93.1296 39.128 91.9456 39.64C90.7776 40.136 89.3536 40.384 87.6736 40.384ZM111.511 35.728V40H97.543V23.2H111.199V27.472H103.111V29.44H110.215V33.52H103.111V35.728H111.511ZM117.699 27.592H112.779V23.2H128.283V27.592H123.363V40H117.699V27.592Z" fill="black"/>
<path d="M70.808 51.216L70.3608 50.3216L68.2997 51.3521L70.4602 52.1536L70.808 51.216ZM73.112 52.824L73.9033 52.2126V52.2126L73.112 52.824ZM72.104 58.8L72.6536 59.6355L72.6612 59.6304L72.104 58.8ZM57.368 60H56.368V61H57.368V60ZM57.368 43.2V42.2H56.368V43.2H57.368ZM71.408 44.4L70.8322 45.2176L70.8376 45.2214L71.408 44.4ZM72.536 49.704L71.6941 49.1643L71.6892 49.1721L71.6843 49.1799L72.536 49.704ZM62.936 47.16V46.16H61.936V47.16H62.936ZM62.936 49.656H61.936V50.656H62.936V49.656ZM62.936 53.4V52.4H61.936V53.4H62.936ZM62.936 56.04H61.936V57.04H62.936V56.04ZM70.4602 52.1536C71.3103 52.4689 71.9112 52.9055 72.3207 53.4354L73.9033 52.2126C73.2248 51.3345 72.2897 50.6991 71.1558 50.2784L70.4602 52.1536ZM72.3207 53.4354C72.7139 53.9442 72.928 54.5704 72.928 55.368H74.928C74.928 54.1816 74.5981 53.1118 73.9033 52.2126L72.3207 53.4354ZM72.928 55.368C72.928 56.5088 72.4843 57.3405 71.5468 57.9696L72.6612 59.6304C74.1557 58.6275 74.928 57.1712 74.928 55.368H72.928ZM71.5544 57.9646C70.5711 58.6115 69.0371 59 66.824 59V61C69.2189 61 71.2049 60.5885 72.6536 59.6354L71.5544 57.9646ZM66.824 59H57.368V61H66.824V59ZM58.368 60V43.2H56.368V60H58.368ZM57.368 44.2H66.344V42.2H57.368V44.2ZM66.344 44.2C68.4935 44.2 69.9395 44.5889 70.8322 45.2176L71.9838 43.5824C70.6045 42.6111 68.6745 42.2 66.344 42.2V44.2ZM70.8376 45.2214C71.7384 45.8469 72.136 46.6128 72.136 47.592H74.136C74.136 45.9152 73.3816 44.5531 71.9784 43.5786L70.8376 45.2214ZM72.136 47.592C72.136 48.1963 71.9848 48.7109 71.6941 49.1643L73.3779 50.2437C73.8872 49.4491 74.136 48.5557 74.136 47.592H72.136ZM71.6843 49.1799C71.4138 49.6196 70.9912 50.0064 70.3608 50.3216L71.2552 52.1104C72.1608 51.6576 72.8902 51.0364 73.3877 50.2281L71.6843 49.1799ZM61.936 47.16V49.656H63.936V47.16H61.936ZM62.936 50.656H65.576V48.656H62.936V50.656ZM65.576 50.656C66.2732 50.656 66.9719 50.544 67.5217 50.1727C68.1414 49.7542 68.424 49.1098 68.424 48.408H66.424C66.424 48.4922 66.4088 48.5174 66.4118 48.5114C66.4169 48.501 66.4225 48.5017 66.4023 48.5153C66.3361 48.56 66.1108 48.656 65.576 48.656V50.656ZM68.424 48.408C68.424 47.7062 68.1414 47.0618 67.5217 46.6433C66.9719 46.272 66.2732 46.16 65.576 46.16V48.16C66.1108 48.16 66.3361 48.256 66.4023 48.3007C66.4225 48.3143 66.4169 48.315 66.4118 48.3046C66.4088 48.2986 66.424 48.3238 66.424 48.408H68.424ZM65.576 46.16H62.936V48.16H65.576V46.16ZM66.344 57.04C67.055 57.04 67.767 56.9202 68.3243 56.5273C68.9454 56.0893 69.216 55.428 69.216 54.72H67.216C67.216 54.8221 67.1981 54.8634 67.1949 54.8701C67.1942 54.8718 67.1934 54.8775 67.1717 54.8927C67.105 54.9398 66.881 55.04 66.344 55.04V57.04ZM69.216 54.72C69.216 54.012 68.9454 53.3507 68.3243 52.9127C67.767 52.5198 67.055 52.4 66.344 52.4V54.4C66.881 54.4 67.105 54.5002 67.1717 54.5473C67.1934 54.5625 67.1942 54.5682 67.1949 54.5699C67.1981 54.5766 67.216 54.6179 67.216 54.72H69.216ZM66.344 52.4H62.936V54.4H66.344V52.4ZM61.936 53.4V56.04H63.936V53.4H61.936ZM62.936 57.04H66.344V55.04H62.936V57.04ZM90.2585 55.728H91.2585V54.728H90.2585V55.728ZM90.2585 60V61H91.2585V60H90.2585ZM76.2905 60H75.2905V61H76.2905V60ZM76.2905 43.2V42.2H75.2905V43.2H76.2905ZM89.9465 43.2H90.9465V42.2H89.9465V43.2ZM89.9465 47.472V48.472H90.9465V47.472H89.9465ZM81.8585 47.472V46.472H80.8585V47.472H81.8585ZM81.8585 49.44H80.8585V50.44H81.8585V49.44ZM88.9625 49.44H89.9625V48.44H88.9625V49.44ZM88.9625 53.52V54.52H89.9625V53.52H88.9625ZM81.8585 53.52V52.52H80.8585V53.52H81.8585ZM81.8585 55.728H80.8585V56.728H81.8585V55.728ZM89.2585 55.728V60H91.2585V55.728H89.2585ZM90.2585 59H76.2905V61H90.2585V59ZM77.2905 60V43.2H75.2905V60H77.2905ZM76.2905 44.2H89.9465V42.2H76.2905V44.2ZM88.9465 43.2V47.472H90.9465V43.2H88.9465ZM89.9465 46.472H81.8585V48.472H89.9465V46.472ZM80.8585 47.472V49.44H82.8585V47.472H80.8585ZM81.8585 50.44H88.9625V48.44H81.8585V50.44ZM87.9625 49.44V53.52H89.9625V49.44H87.9625ZM88.9625 52.52H81.8585V54.52H88.9625V52.52ZM80.8585 53.52V55.728H82.8585V53.52H80.8585ZM81.8585 56.728H90.2585V54.728H81.8585V56.728ZM104.247 57.072L105.18 56.7125L104.933 56.072H104.247V57.072ZM97.8629 57.072V56.072H97.1765L96.9298 56.7125L97.8629 57.072ZM96.7349 60V61H97.4213L97.6681 60.3595L96.7349 60ZM90.9749 60L90.0587 59.5995L89.4464 61H90.9749V60ZM98.3189 43.2V42.2H97.6647L97.4027 42.7995L98.3189 43.2ZM103.887 43.2L104.803 42.7995L104.541 42.2H103.887V43.2ZM111.231 60V61H112.759L112.147 59.5995L111.231 60ZM105.375 60L104.442 60.3595L104.689 61H105.375V60ZM102.687 52.992V53.992H104.145L103.62 52.6316L102.687 52.992ZM101.055 48.768L101.988 48.4076L101.055 45.9933L100.122 48.4076L101.055 48.768ZM99.4229 52.992L98.4901 52.6316L97.9645 53.992H99.4229V52.992ZM104.247 56.072H97.8629V58.072H104.247V56.072ZM96.9298 56.7125L95.8018 59.6405L97.6681 60.3595L98.7961 57.4315L96.9298 56.7125ZM96.7349 59H90.9749V61H96.7349V59ZM91.8912 60.4005L99.2352 43.6005L97.4027 42.7995L90.0587 59.5995L91.8912 60.4005ZM98.3189 44.2H103.887V42.2H98.3189V44.2ZM102.971 43.6005L110.315 60.4005L112.147 59.5995L104.803 42.7995L102.971 43.6005ZM111.231 59H105.375V61H111.231V59ZM106.308 59.6405L105.18 56.7125L103.314 57.4315L104.442 60.3595L106.308 59.6405ZM103.62 52.6316L101.988 48.4076L100.122 49.1284L101.754 53.3524L103.62 52.6316ZM100.122 48.4076L98.4901 52.6316L100.356 53.3524L101.988 49.1284L100.122 48.4076ZM99.4229 53.992H102.687V51.992H99.4229V53.992ZM115.299 47.592H116.299V46.592H115.299V47.592ZM110.379 47.592H109.379V48.592H110.379V47.592ZM110.379 43.2V42.2H109.379V43.2H110.379ZM125.883 43.2H126.883V42.2H125.883V43.2ZM125.883 47.592V48.592H126.883V47.592H125.883ZM120.963 47.592V46.592H119.963V47.592H120.963ZM120.963 60V61H121.963V60H120.963ZM115.299 60H114.299V61H115.299V60ZM115.299 46.592H110.379V48.592H115.299V46.592ZM111.379 47.592V43.2H109.379V47.592H111.379ZM110.379 44.2H125.883V42.2H110.379V44.2ZM124.883 43.2V47.592H126.883V43.2H124.883ZM125.883 46.592H120.963V48.592H125.883V46.592ZM119.963 47.592V60H121.963V47.592H119.963ZM120.963 59H115.299V61H120.963V59ZM116.299 60V47.592H114.299V60H116.299Z" fill="black"/>
</svg>
