<svg width="120" height="120" viewBox="0 0 120 120" fill="none" xmlns="http://www.w3.org/2000/svg">
<path d="M15 60H60V67.5H15V60Z" fill="#616161"/>
<path d="M7.5 41.25H45V48.75H7.5V41.25Z" fill="#616161"/>
<path d="M112.196 62.2725L100.946 36.0225C100.658 35.3478 100.177 34.7727 99.5644 34.3687C98.9518 33.9648 98.2339 33.7496 97.5 33.75H86.25V26.25C86.25 25.2554 85.855 24.3016 85.1517 23.5984C84.4484 22.8951 83.4946 22.5 82.5 22.5H22.5V30H78.75V77.085C77.0413 78.0772 75.5459 79.3979 74.35 80.9709C73.1542 82.5439 72.2816 84.3381 71.7825 86.25H48.2175C47.3048 82.715 45.1342 79.6343 42.1125 77.5852C39.0908 75.5362 35.4256 74.6595 31.8038 75.1196C28.182 75.5796 24.8523 77.3447 22.4388 80.0841C20.0254 82.8235 18.6938 86.3491 18.6938 90C18.6938 93.6509 20.0254 97.1765 22.4388 99.9159C24.8523 102.655 28.182 104.42 31.8038 104.88C35.4256 105.34 39.0908 104.464 42.1125 102.415C45.1342 100.366 47.3048 97.285 48.2175 93.75H71.7825C72.5983 96.9684 74.4639 99.8229 77.0842 101.862C79.7045 103.901 82.9299 105.008 86.25 105.008C89.5702 105.008 92.7956 103.901 95.4159 101.862C98.0362 99.8229 99.9018 96.9684 100.718 93.75H108.75C109.745 93.75 110.698 93.3549 111.402 92.6517C112.105 91.9484 112.5 90.9946 112.5 90V63.75C112.5 63.242 112.397 62.7393 112.196 62.2725ZM33.75 97.5C32.2667 97.5 30.8166 97.0601 29.5833 96.236C28.3499 95.4119 27.3886 94.2406 26.8209 92.8701C26.2533 91.4997 26.1048 89.9917 26.3941 88.5368C26.6835 87.082 27.3978 85.7456 28.4467 84.6967C29.4956 83.6478 30.832 82.9335 32.2869 82.6441C33.7417 82.3547 35.2497 82.5032 36.6202 83.0709C37.9906 83.6386 39.1619 84.5999 39.9861 85.8332C40.8102 87.0666 41.25 88.5166 41.25 90C41.2481 91.9885 40.4572 93.895 39.0511 95.3011C37.6451 96.7072 35.7386 97.498 33.75 97.5ZM86.25 41.25H95.025L103.065 60H86.25V41.25ZM86.25 97.5C84.7667 97.5 83.3166 97.0601 82.0833 96.236C80.8499 95.4119 79.8886 94.2406 79.3209 92.8701C78.7533 91.4997 78.6048 89.9917 78.8942 88.5368C79.1835 87.082 79.8978 85.7456 80.9467 84.6967C81.9956 83.6478 83.332 82.9335 84.7869 82.6441C86.2417 82.3547 87.7497 82.5032 89.1202 83.0709C90.4906 83.6386 91.6619 84.5999 92.4861 85.8332C93.3102 87.0666 93.75 88.5166 93.75 90C93.7481 91.9885 92.9572 93.895 91.5511 95.3011C90.1451 96.7072 88.2386 97.498 86.25 97.5ZM105 86.25H100.718C99.8915 83.0379 98.0229 80.1907 95.4047 78.1547C92.7865 76.1188 89.5667 75.0092 86.25 75V67.5H105V86.25Z" fill="#616161"/>
</svg>
