<svg width="82" height="112" viewBox="0 0 82 112" fill="none" xmlns="http://www.w3.org/2000/svg">
<path d="M81.3097 41C81.315 34.1873 79.5938 27.4844 76.3066 21.5173C73.0194 15.5501 68.2736 10.5133 62.5124 6.87733C56.7511 3.24134 50.1624 1.12474 43.3614 0.725188C36.5605 0.325641 29.7692 1.65618 23.6218 4.59256C17.4744 7.52893 12.1715 11.9754 8.20825 17.5166C4.24499 23.0578 1.75069 29.513 0.958288 36.2795C0.165889 43.0459 1.10124 49.9028 3.67699 56.2097C6.25274 62.5167 10.3849 68.0681 15.6875 72.3453V108.5C15.6875 108.979 15.8101 109.451 16.0436 109.87C16.2771 110.288 16.6137 110.64 17.0216 110.892C17.4294 111.144 17.8949 111.288 18.3739 111.31C18.8528 111.331 19.3293 111.23 19.7581 111.015L40.9962 100.394L62.2423 111.016C62.6711 111.23 63.1476 111.331 63.6265 111.31C64.1055 111.288 64.5709 111.145 64.9787 110.893C65.3865 110.64 65.7231 110.288 65.9565 109.87C66.19 109.451 66.3125 108.979 66.3125 108.5V72.3411C70.9946 68.569 74.772 63.7958 77.3673 58.3722C79.9625 52.9487 81.3097 47.0125 81.3097 41V41ZM6.30966 41C6.30966 34.1395 8.34405 27.433 12.1556 21.7287C15.9671 16.0243 21.3845 11.5783 27.7228 8.95293C34.0611 6.32751 41.0356 5.64058 47.7644 6.97901C54.4931 8.31743 60.6738 11.6211 65.5249 16.4722C70.3761 21.3234 73.6797 27.5041 75.0182 34.2328C76.3566 40.9615 75.6697 47.936 73.0442 54.2743C70.4188 60.6126 65.9728 66.0301 60.2685 69.8416C54.5642 73.6531 47.8577 75.6875 40.9972 75.6875C31.8007 75.6771 22.9838 72.0192 16.4809 65.5163C9.978 59.0133 6.32008 50.1965 6.30966 41V41ZM60.6875 103.949L42.2539 94.7342C41.8634 94.5389 41.4328 94.4372 40.9962 94.4372C40.5596 94.4372 40.129 94.5389 39.7386 94.7342L21.3125 103.949V76.1609C27.3243 79.5392 34.1044 81.3133 41.0004 81.3128C47.8964 81.3122 54.6762 79.5369 60.6875 76.1577V103.949ZM40.9972 66.3125C46.0035 66.3125 50.8974 64.8279 55.06 62.0466C59.2227 59.2652 62.467 55.3119 64.3829 50.6867C66.2987 46.0614 66.8 40.9719 65.8233 36.0618C64.8466 31.1516 62.4358 26.6414 58.8958 23.1014C55.3558 19.5613 50.8455 17.1506 45.9354 16.1739C41.0252 15.1972 35.9357 15.6985 31.3105 17.6143C26.6852 19.5301 22.732 22.7745 19.9506 26.9371C17.1692 31.0997 15.6847 35.9937 15.6847 41C15.6924 47.7109 18.3617 54.1448 23.107 58.8901C27.8524 63.6355 34.2862 66.3048 40.9972 66.3125V66.3125ZM40.9972 21.3125C44.891 21.3125 48.6974 22.4672 51.935 24.6304C55.1726 26.7937 57.6959 29.8685 59.186 33.4659C60.6761 37.0633 61.066 41.0218 60.3064 44.8408C59.5467 48.6598 57.6717 52.1678 54.9183 54.9212C52.165 57.6745 48.657 59.5496 44.838 60.3092C41.019 61.0689 37.0605 60.679 33.4631 59.1889C29.8657 57.6988 26.7909 55.1754 24.6276 51.9378C22.4643 48.7002 21.3097 44.8938 21.3097 41C21.3155 35.7803 23.3916 30.7761 27.0824 27.0853C30.7733 23.3944 35.7775 21.3183 40.9972 21.3125V21.3125Z" fill="#616161"/>
</svg>
